<svg width="16" height="21" viewBox="0 0 16 21" fill="none" xmlns="http://www.w3.org/2000/svg">
<path fill-rule="evenodd" clip-rule="evenodd" d="M7.99982 0C12.418 0 15.9996 3.58986 15.9996 8.01818C15.9996 8.55871 15.9463 9.08675 15.8445 9.5973C15.1385 14.9303 8.04185 21 8.04185 21C8.04185 21 2.00258 15.8347 0.512202 10.8473C0.181141 9.96753 0 9.01406 0 8.01818C0 3.58986 3.58164 0 7.99982 0Z" fill="black"/>
<path d="M11.0473 8.01829C11.0473 6.33131 9.68284 4.96375 7.99973 4.96375C6.31661 4.96375 4.95218 6.33131 4.95218 8.01829C4.95218 9.70527 6.31661 11.0728 7.99973 11.0728C9.68284 11.0728 11.0473 9.70527 11.0473 8.01829Z" fill="white"/>
</svg>
