<svg width="32" height="32" viewBox="0 0 32 32" fill="none" xmlns="http://www.w3.org/2000/svg">
<path fill-rule="evenodd" clip-rule="evenodd" d="M16 3.2C8.93075 3.2 3.2 8.93075 3.2 16C3.2 23.0692 8.93075 28.8 16 28.8C23.0692 28.8 28.8 23.0692 28.8 16C28.8 8.93075 23.0692 3.2 16 3.2ZM0 16C0 7.16344 7.16344 0 16 0C24.8365 0 32 7.16344 32 16C32 24.8365 24.8365 32 16 32C7.16344 32 0 24.8365 0 16ZM18.7314 10.0686C19.3562 10.6935 19.3562 11.7065 18.7314 12.3314L15.0627 16L18.7314 19.6686C19.3562 20.2935 19.3562 21.3065 18.7314 21.9314C18.1065 22.5562 17.0935 22.5562 16.4686 21.9314L11.6686 17.1314C11.0438 16.5065 11.0438 15.4935 11.6686 14.8686L16.4686 10.0686C17.0935 9.44378 18.1065 9.44378 18.7314 10.0686Z" fill="white"/>
</svg>
